<svg width="318" height="381" viewBox="0 0 318 381" fill="none" xmlns="http://www.w3.org/2000/svg">
<g clip-path="url(#clip0_2035_1265)">
<path d="M208.564 217.543H270.135C298.201 217.543 318 233.889 318 260.976V263.545C318 285.028 306.904 297.17 293.85 301.607V304.876C304.293 305.343 311.908 312.115 311.908 326.125V381H293.85V328.46C293.85 319.12 289.281 312.494 279.491 312.494H226.622V381H208.564V217.543ZM268.395 296.236C288.193 296.236 299.942 285.261 299.942 266.58V264.946C299.942 246.031 288.629 233.801 268.395 233.801H226.622V296.236H268.395ZM152.133 304H170.191V381H152.133V304ZM127.793 252.307V250.205C127.793 228.343 141.771 214.741 161.08 214.741C180.389 214.741 194.504 228.343 194.504 250.205V252.307C194.504 274.315 180.417 287.742 161.08 287.742C141.744 287.742 127.793 274.286 127.793 252.307ZM181.069 251.898V250.643C181.069 236.341 172.965 227.672 161.108 227.672C149.25 227.672 141.255 236.37 141.255 250.643V251.898C141.255 266.347 149.359 274.87 161.108 274.87C172.856 274.87 181.069 266.318 181.069 251.898ZM4.35132 217.543H40.4673L90.018 364.742H95.4843V217.543H113.542V381H77.4263L27.8757 233.801H22.4093V381H4.35132V217.543ZM244.68 121.6H262.738V179.569H312.099V196.206H244.68V121.6ZM244.68 0H311.908V16.2581H262.738V45.8262H307.856V59.5449H262.738V89.1131H311.908V105.371H244.68V0ZM73.1022 179.832H113.542V16.2581H40.4673V0H177.289C208.619 0 231.327 19.9067 231.327 49.037V51.2845C231.327 78.7511 213.84 91.0687 200.514 95.2719V98.6286C214.085 102.277 231.327 114.887 231.327 142.353V145.155C231.327 177.088 207.558 196.148 176.5 196.148H77.1L73.1022 179.832ZM175.984 89.1131C199.998 89.1131 214.629 75.1025 214.629 54.0866V51.2845C214.629 30.2687 199.998 16.2581 175.984 16.2581H131.6V89.1131H175.984ZM174.95 179.832C201.058 179.832 214.629 165.879 214.629 143.754V141.507C214.629 119.382 201.058 105.371 174.95 105.371H131.6V179.832H174.95ZM18.2484 121.6H44.3291L62.5774 196.06H48.0549L44.0843 179.89H18.4931L14.5225 196.09H0L18.2484 121.629V121.6ZM40.9568 167.076L32.1726 131.232H30.4049L21.6206 167.076H40.9568ZM4.35132 0H22.4093V89.1131H95.4843V105.371H4.35132V0Z" fill="white"/>
</g>
<defs>
<clipPath id="clip0_2035_1265">
<rect width="318" height="381" fill="white"/>
</clipPath>
</defs>
</svg>
